<!DOCTYPE svg PUBLIC "-//W3C//DTD SVG 1.1//EN" "http://www.w3.org/Graphics/SVG/1.1/DTD/svg11.dtd">
<!-- Uploaded to: SVG Repo, www.svgrepo.com, Transformed by: SVG Repo Mixer Tools -->
<svg fill="#ffffff" height="800px" width="800px" version="1.1" id="Layer_1" xmlns="http://www.w3.org/2000/svg" xmlns:xlink="http://www.w3.org/1999/xlink" viewBox="0 0 511.998 511.998" xml:space="preserve" stroke="#ffffff" stroke-width="0.0051199800000000005">
<g id="SVGRepo_bgCarrier" stroke-width="0"/>
<g id="SVGRepo_tracerCarrier" stroke-linecap="round" stroke-linejoin="round"/>
<g id="SVGRepo_iconCarrier"> <g> <g> <g> <path d="M204.398,255.998H51.587c-28.492,0-51.584,23.104-51.584,51.605v152.789c0,28.502,23.092,51.605,51.584,51.605h152.811 c28.491,0,51.605-23.103,51.605-51.605V307.603C256.003,279.101,232.889,255.998,204.398,255.998z M213.337,460.393 c0,4.934-4.007,8.939-8.939,8.939H51.587c-4.923,0-8.917-3.996-8.917-8.939V307.603c0-4.942,3.994-8.939,8.917-8.939h152.811 c4.932,0,8.939,4.005,8.939,8.939V460.393z"/> <path d="M85.328,362.665c11.776,0,21.333-9.557,21.333-21.333c0-11.776-9.557-21.333-21.333-21.333s-21.333,9.557-21.333,21.333 C63.995,353.107,73.552,362.665,85.328,362.665z"/> <path d="M170.661,319.998c-11.776,0-21.333,9.557-21.333,21.333c0,11.776,9.557,21.333,21.333,21.333s21.333-9.557,21.333-21.333 C191.995,329.555,182.437,319.998,170.661,319.998z"/> <path d="M127.995,362.665c-11.776,0-21.333,9.557-21.333,21.333s9.557,21.333,21.333,21.333s21.333-9.557,21.333-21.333 S139.771,362.665,127.995,362.665z"/> <path d="M85.328,405.331c-11.776,0-21.333,9.557-21.333,21.333s9.557,21.333,21.333,21.333s21.333-9.557,21.333-21.333 S97.104,405.331,85.328,405.331z"/> <path d="M170.661,405.331c-11.776,0-21.333,9.557-21.333,21.333s9.557,21.333,21.333,21.333s21.333-9.557,21.333-21.333 S182.437,405.331,170.661,405.331z"/> <path d="M496.882,123.166L388.829,15.112c-20.15-20.15-52.815-20.15-72.965,0L207.811,123.166 c-20.15,20.15-20.15,52.815,0,72.965l108.053,108.053c20.15,20.15,52.815,20.15,72.965,0L496.882,196.13 C517.032,175.98,517.032,143.316,496.882,123.166z M466.712,165.96L358.659,274.014c-3.487,3.487-9.137,3.487-12.625,0 L237.981,165.96c-3.487-3.487-3.487-9.137,0-12.625L346.034,45.282c3.487-3.487,9.137-3.487,12.625,0l108.053,108.053 C470.2,156.823,470.2,162.473,466.712,165.96z"/> <path d="M337.266,84.22c-8.341,8.341-8.341,21.845,0,30.165c8.32,8.341,21.824,8.341,30.165,0c8.341-8.32,8.341-21.824,0-30.165 C359.09,75.878,345.586,75.878,337.266,84.22z"/> <path d="M337.266,144.561c-8.341,8.341-8.341,21.845,0,30.165c8.32,8.341,21.824,8.341,30.165,0 c8.341-8.32,8.341-21.824,0-30.165C359.09,136.22,345.586,136.22,337.266,144.561z"/> <path d="M337.266,204.9c-8.341,8.341-8.341,21.845,0,30.165c8.32,8.341,21.824,8.341,30.165,0c8.341-8.32,8.341-21.824,0-30.165 C359.09,196.559,345.586,196.559,337.266,204.9z"/> </g> </g> </g> </g>
</svg>